<svg xmlns="http://www.w3.org/2000/svg" enable-background="new 0 0 1550 1550" viewBox="0 0 1550 1550" id="application"><path fill="#fedd60" d="M1519,224v177H31V224c0-33.14,26.86-60,60-60h1368C1492.14,164,1519,190.86,1519,224z"></path><rect width="265.06" height="280" x="176.06" y="947.52" fill="#ff4756"></rect><rect width="419.93" height="280" x="568.95" y="947.52" fill="#f9cb7d"></rect><rect width="465.94" height="280" x="908" y="559.48" fill="#f9cb7d"></rect><rect width="265.06" height="280" x="1108.88" y="947.52" fill="#ff4756"></rect><rect width="604.11" height="280" x="176.06" y="559.48" fill="#ff4756"></rect><path fill="#f8f6f7" d="M1519,401v925c0,33.14-26.86,60-60,60H91c-33.14,0-60-26.86-60-60V401H1519z M1373.94,1227.52v-280h-265.06v280H1373.94z M1373.94,839.48v-280H908v280H1373.94z M988.88,1227.52v-280H568.95v280H988.88z M780.17,839.48v-280H176.06v280H780.17z M441.12,1227.52v-280H176.06v280H441.12z"></path><g><path d="M1519,425c-13.25,0-24-10.75-24-24V224c0-19.85-16.15-36-36-36H91c-19.85,0-36,16.15-36,36v177c0,13.25-10.75,24-24,24S7,414.25,7,401V224c0-46.32,37.68-84,84-84h1368c46.32,0,84,37.68,84,84v177C1543,414.25,1532.25,425,1519,425z"></path><path d="M1459 1410H91c-46.32 0-84-37.68-84-84V401c0-13.25 10.75-24 24-24h1488c13.25 0 24 10.75 24 24v925C1543 1372.32 1505.32 1410 1459 1410zM55 425v901c0 19.85 16.15 36 36 36h1368c19.85 0 36-16.15 36-36V425H55zM217.99 317.5L217.99 317.5c-19.33 0-35-15.67-35-35l0 0c0-19.33 15.67-35 35-35l0 0c19.33 0 35 15.67 35 35l0 0C252.99 301.83 237.32 317.5 217.99 317.5zM355.99 317.5L355.99 317.5c-19.33 0-35-15.67-35-35l0 0c0-19.33 15.67-35 35-35l0 0c19.33 0 35 15.67 35 35l0 0C390.99 301.83 375.32 317.5 355.99 317.5zM493.99 317.5L493.99 317.5c-19.33 0-35-15.67-35-35l0 0c0-19.33 15.67-35 35-35l0 0c19.33 0 35 15.67 35 35l0 0C528.99 301.83 513.32 317.5 493.99 317.5z"></path><g><path d="M988.88 1251.52H568.95c-13.25 0-24-10.75-24-24v-280c0-13.25 10.75-24 24-24h419.93c13.25 0 24 10.75 24 24v280C1012.88 1240.77 1002.13 1251.52 988.88 1251.52zM592.95 1203.52h371.93v-232H592.95V1203.52zM441.12 1251.52H176.06c-13.25 0-24-10.75-24-24v-280c0-13.25 10.75-24 24-24h265.06c13.25 0 24 10.75 24 24v280C465.12 1240.77 454.38 1251.52 441.12 1251.52zM200.06 1203.52h217.06v-232H200.06V1203.52zM1373.94 1251.52h-265.06c-13.25 0-24-10.75-24-24v-280c0-13.25 10.75-24 24-24h265.06c13.25 0 24 10.75 24 24v280C1397.94 1240.77 1387.19 1251.52 1373.94 1251.52zM1132.88 1203.52h217.06v-232h-217.06L1132.88 1203.52 1132.88 1203.52z"></path><g><path d="M1373.94 863.48H908c-13.25 0-24-10.75-24-24v-280c0-13.25 10.75-24 24-24h465.94c13.25 0 24 10.75 24 24v280C1397.94 852.74 1387.19 863.48 1373.94 863.48zM932 815.48h417.94v-232H932V815.48zM780.17 863.48H176.06c-13.25 0-24-10.75-24-24v-280c0-13.25 10.75-24 24-24h604.11c13.25 0 24 10.75 24 24v280C804.17 852.74 793.43 863.48 780.17 863.48zM200.06 815.48h556.11v-232H200.06V815.48z"></path></g></g></g></svg>
